<?xml version="1.0" standalone="no"?>
<!DOCTYPE svg PUBLIC "-//W3C//DTD SVG 20010904//EN"
 "http://www.w3.org/TR/2001/REC-SVG-20010904/DTD/svg10.dtd">
<svg version="1.0" xmlns="http://www.w3.org/2000/svg"
 width="196.000000pt" height="196.000000pt" viewBox="0 0 196.000000 196.000000"
 preserveAspectRatio="xMidYMid meet">
<metadata>
Created by potrace 1.11, written by Peter Selinger 2001-2013
</metadata>
<g transform="translate(0.000000,196.000000) scale(0.100000,-0.100000)"
fill="#000000" stroke="none">
<path d="M456 1898 c-9 -29 -18 -66 -21 -83 -24 -129 -36 -199 -43 -255 -9
-81 -9 -356 0 -430 43 -361 215 -629 495 -769 86 -43 204 -84 278 -97 54 -9
75 -21 132 -74 65 -61 193 -165 221 -179 46 -24 73 34 30 64 -81 56 -249 184
-287 219 -252 229 -436 473 -542 716 -35 82 -79 205 -79 219 1 3 27 -46 59
-109 64 -127 89 -173 113 -210 8 -14 36 -56 61 -95 66 -103 175 -240 258 -325
70 -71 160 -150 171 -150 8 0 64 155 84 230 34 131 26 289 -21 381 -35 69
-112 148 -230 236 -366 271 -448 341 -535 458 -75 100 -125 217 -122 288 1 31
-7 18 -22 -35z"/>
</g>
</svg>
