<?xml version="1.0" encoding="iso-8859-1"?>
<!-- Generator: Adobe Illustrator 19.0.0, SVG Export Plug-In . SVG Version: 6.00 Build 0)  -->
<svg version="1.1" id="Capa_1" xmlns="http://www.w3.org/2000/svg" xmlns:xlink="http://www.w3.org/1999/xlink" x="0px" y="0px"
	 viewBox="0 0 469.333 469.333" style="enable-background:new 0 0 469.333 469.333;" xml:space="preserve">
<path style="fill:#303C42;" d="M458.667,0h-448C4.771,0,0,4.771,0,10.667s4.771,10.667,10.667,10.667h32v21.333H32
	c-4.042,0-7.729,2.281-9.542,5.896L1.125,91.229c-1.646,3.302-1.479,7.229,0.458,10.375c1.958,3.146,5.396,5.063,9.083,5.063h32V128
	H32c-4.042,0-7.729,2.281-9.542,5.896L1.125,176.563c-1.646,3.302-1.479,7.229,0.458,10.375C3.542,190.083,6.979,192,10.667,192h32
	v21.333H32c-4.042,0-7.729,2.281-9.542,5.896L1.125,261.896c-1.646,3.302-1.479,7.229,0.458,10.375
	c1.958,3.146,5.396,5.063,9.083,5.063h32v21.333H32c-4.042,0-7.729,2.281-9.542,5.896L1.125,347.229
	c-1.646,3.302-1.479,7.229,0.458,10.375c1.958,3.146,5.396,5.063,9.083,5.063h32v21.313H32c-4.042,0-7.729,2.281-9.542,5.896
	L1.125,432.542c-1.646,3.302-1.479,7.229,0.458,10.375c1.958,3.146,5.396,5.063,9.083,5.063h32v10.688
	c0,5.896,4.771,10.667,10.667,10.667S64,464.563,64,458.667v-10.688h298.667v10.688c0,5.896,4.771,10.667,10.667,10.667
	S384,464.563,384,458.667v-10.688h32c3.688,0,7.125-1.917,9.083-5.063c1.938-3.146,2.104-7.073,0.458-10.375l-21.333-42.667
	c-1.813-3.615-5.5-5.896-9.542-5.896H384v-21.313h32c3.688,0,7.125-1.917,9.083-5.063c1.938-3.146,2.104-7.073,0.458-10.375
	l-21.333-42.667c-1.813-3.615-5.5-5.896-9.542-5.896H384v-21.333h32c3.688,0,7.125-1.917,9.083-5.063
	c1.938-3.146,2.104-7.073,0.458-10.375l-21.333-42.667c-1.813-3.615-5.5-5.896-9.542-5.896H384V192h32
	c3.688,0,7.125-1.917,9.083-5.063c1.938-3.146,2.104-7.073,0.458-10.375l-21.333-42.667c-1.813-3.615-5.5-5.896-9.542-5.896H384
	v-21.333h32c3.688,0,7.125-1.917,9.083-5.063c1.938-3.146,2.104-7.073,0.458-10.375l-21.333-42.667
	c-1.813-3.615-5.5-5.896-9.542-5.896H384V21.333h42.667v288c0,5.896,4.771,10.667,10.667,10.667S448,315.229,448,309.333v-288
	h10.667c5.896,0,10.667-4.771,10.667-10.667S464.563,0,458.667,0z M362.667,383.979H64v-21.313h298.667V383.979z M362.667,298.667
	H64v-21.333h298.667V298.667z M362.667,213.333H64V192h298.667V213.333z M362.667,128H64v-21.333h298.667V128z M362.667,42.667H64
	V21.333h298.667V42.667z"/>
<g>
	<polygon style="fill:#BDBDBD;" points="398.75,426.646 27.917,426.646 38.583,405.313 388.083,405.313 	"/>
	<polygon style="fill:#BDBDBD;" points="398.75,341.333 27.917,341.333 38.583,320 388.083,320 	"/>
	<polygon style="fill:#BDBDBD;" points="398.75,256 27.917,256 38.583,234.667 388.083,234.667 	"/>
	<polygon style="fill:#BDBDBD;" points="398.75,170.667 27.917,170.667 38.583,149.333 388.083,149.333 	"/>
	<polygon style="fill:#BDBDBD;" points="398.75,85.333 27.917,85.333 38.583,64 388.083,64 	"/>
</g>
<linearGradient id="SVGID_1_" gradientUnits="userSpaceOnUse" x1="-68.9574" y1="619.6436" x2="-44.7843" y2="608.3696" gradientTransform="matrix(21.3333 0 0 -21.3333 1430.1112 13315.2227)">
	<stop  offset="0" style="stop-color:#FFFFFF;stop-opacity:0.2"/>
	<stop  offset="1" style="stop-color:#FFFFFF;stop-opacity:0"/>
</linearGradient>
<path style="fill:url(#SVGID_1_);" d="M458.667,0h-448C4.771,0,0,4.771,0,10.667s4.771,10.667,10.667,10.667h32v21.333H32
	c-4.042,0-7.729,2.281-9.542,5.896L1.125,91.229c-1.646,3.302-1.479,7.229,0.458,10.375c1.958,3.146,5.396,5.063,9.083,5.063h32V128
	H32c-4.042,0-7.729,2.281-9.542,5.896L1.125,176.563c-1.646,3.302-1.479,7.229,0.458,10.375C3.542,190.083,6.979,192,10.667,192h32
	v21.333H32c-4.042,0-7.729,2.281-9.542,5.896L1.125,261.896c-1.646,3.302-1.479,7.229,0.458,10.375
	c1.958,3.146,5.396,5.063,9.083,5.063h32v21.333H32c-4.042,0-7.729,2.281-9.542,5.896L1.125,347.229
	c-1.646,3.302-1.479,7.229,0.458,10.375c1.958,3.146,5.396,5.063,9.083,5.063h32v21.313H32c-4.042,0-7.729,2.281-9.542,5.896
	L1.125,432.542c-1.646,3.302-1.479,7.229,0.458,10.375c1.958,3.146,5.396,5.063,9.083,5.063h32v10.688
	c0,5.896,4.771,10.667,10.667,10.667S64,464.563,64,458.667v-10.688h298.667v10.688c0,5.896,4.771,10.667,10.667,10.667
	S384,464.563,384,458.667v-10.688h32c3.688,0,7.125-1.917,9.083-5.063c1.938-3.146,2.104-7.073,0.458-10.375l-21.333-42.667
	c-1.813-3.615-5.5-5.896-9.542-5.896H384v-21.313h32c3.688,0,7.125-1.917,9.083-5.063c1.938-3.146,2.104-7.073,0.458-10.375
	l-21.333-42.667c-1.813-3.615-5.5-5.896-9.542-5.896H384v-21.333h32c3.688,0,7.125-1.917,9.083-5.063
	c1.938-3.146,2.104-7.073,0.458-10.375l-21.333-42.667c-1.813-3.615-5.5-5.896-9.542-5.896H384V192h32
	c3.688,0,7.125-1.917,9.083-5.063c1.938-3.146,2.104-7.073,0.458-10.375l-21.333-42.667c-1.813-3.615-5.5-5.896-9.542-5.896H384
	v-21.333h32c3.688,0,7.125-1.917,9.083-5.063c1.938-3.146,2.104-7.073,0.458-10.375l-21.333-42.667
	c-1.813-3.615-5.5-5.896-9.542-5.896H384V21.333h42.667v288c0,5.896,4.771,10.667,10.667,10.667S448,315.229,448,309.333v-288
	h10.667c5.896,0,10.667-4.771,10.667-10.667S464.563,0,458.667,0z M362.667,383.979H64v-21.313h298.667V383.979z M362.667,298.667
	H64v-21.333h298.667V298.667z M362.667,213.333H64V192h298.667V213.333z M362.667,128H64v-21.333h298.667V128z M362.667,42.667H64
	V21.333h298.667V42.667z"/>
<g>
</g>
<g>
</g>
<g>
</g>
<g>
</g>
<g>
</g>
<g>
</g>
<g>
</g>
<g>
</g>
<g>
</g>
<g>
</g>
<g>
</g>
<g>
</g>
<g>
</g>
<g>
</g>
<g>
</g>
</svg>
