<?xml version="1.0" encoding="utf-8"?>
<!-- Generator: Adobe Illustrator 16.0.0, SVG Export Plug-In . SVG Version: 6.00 Build 0)  -->
<!DOCTYPE svg PUBLIC "-//W3C//DTD SVG 1.1//EN" "http://www.w3.org/Graphics/SVG/1.1/DTD/svg11.dtd">
<svg version="1.1" id="Capa_1" xmlns="http://www.w3.org/2000/svg" xmlns:xlink="http://www.w3.org/1999/xlink" x="0px" y="0px"
	 width="1280px" height="800px" viewBox="0 0 1280 800" enable-background="new 0 0 1280 800" xml:space="preserve">
<path fill="#E6E6E6" d="M955.738,372.536c45.694,0,82.735-37.041,82.735-82.735c0-45.693-37.041-82.734-82.735-82.734l0,0
	c-17.392,0.002-34.36,5.365-48.593,15.361c4.257-15.096,6.443-30.702,6.495-46.387C911.908,77.1,830.295-1.705,731.354,0.028
	c-78.843,1.381-147.517,54.143-169.16,129.972c-19.215-16.938-43.938-26.307-69.553-26.352
	c-57.616-0.496-104.73,45.803-105.238,103.419c0.046,13.104,2.637,26.077,7.625,38.195c-15.609-23.883-42.234-38.254-70.766-38.195
	c-45.694,0-82.735,37.041-82.735,82.734c0,45.694,37.041,82.735,82.735,82.735"/>
<path fill="#60A111" d="M405.551,524.217h468.832c15.231,0,27.578,12.346,27.578,27.578v55.156
	c0,15.232-12.347,27.578-27.578,27.578H405.551c-15.231,0-27.578-12.346-27.578-27.578v-55.156
	C377.972,536.565,390.319,524.217,405.551,524.217z"/>
<path fill="#ED7D31" d="M836.462,606.097c-14.758-0.092-26.649-12.13-26.558-26.889c0.092-14.758,12.129-26.649,26.889-26.559
	c14.694,0.092,26.559,12.028,26.559,26.722C863.282,594.169,851.256,606.119,836.462,606.097z M836.462,578.519l-0.689,0.854
	c0,0.414,0.276,0.869,0.689,0.869V578.519z"/>
<path fill="#F2F2F2" d="M692.365,593.162H430.372c-7.615,0-13.79-6.174-13.79-13.789s6.175-13.789,13.79-13.789h261.993
	c7.615,0,13.789,6.174,13.789,13.789S699.98,593.162,692.365,593.162z"/>
<path fill="#F8CF26" d="M777.511,593.162h-36.679c-7.615,0-13.789-6.174-13.789-13.789s6.174-13.789,13.789-13.789h36.679
	c7.615,0,13.789,6.174,13.789,13.789S785.129,593.162,777.511,593.162z"/>
<path fill="#A0C670" d="M405.551,358.747h468.832c15.231,0,27.578,12.346,27.578,27.578v55.156
	c0,15.232-12.347,27.578-27.578,27.578H405.551c-15.231,0-27.578-12.346-27.578-27.578v-55.156
	C377.972,371.093,390.319,358.747,405.551,358.747z"/>
<path fill="#ED7D31" d="M832.257,441.482c-13.031-0.009-24.193-9.326-26.53-22.146c-1.253-6.969,0.348-14.147,4.439-19.925
	c8.604-12.15,25.431-15.023,37.581-6.419c5.757,4.076,9.685,10.247,10.943,17.188c1.267,6.974-0.333,14.163-4.44,19.938
	c-4.107,5.885-10.418,9.863-17.498,11.031C835.264,441.384,833.761,441.494,832.257,441.482L832.257,441.482z M832.174,413.904
	l-0.62,1.089c0,0.29,0.068,0.58,0.689,0.635L832.174,413.904z"/>
<path fill="#F2F2F2" d="M689.606,427.693H427.612c-7.615,0-13.789-6.174-13.789-13.789s6.174-13.789,13.789-13.789h261.994
	c7.614,0,13.789,6.174,13.789,13.789S697.222,427.693,689.606,427.693z"/>
<path fill="#F8CF26" d="M768.701,427.693h-36.68c-7.615,0-13.789-6.174-13.789-13.789s6.174-13.789,13.789-13.789h36.68
	c7.614,0,13.789,6.174,13.789,13.789S776.317,427.693,768.701,427.693z"/>
<path fill="#80B341" d="M580.769,211.107l-41.367-41.367c-5.385-5.383-14.113-5.383-19.498,0l-41.367,41.367
	c-5.29,5.478-5.138,14.208,0.34,19.498c5.344,5.16,13.814,5.16,19.158,0l17.829-17.829v90.814c0,7.615,6.175,13.789,13.789,13.789
	c7.615,0,13.79-6.174,13.79-13.789v-90.814l17.829,17.829c5.478,5.29,14.208,5.138,19.497-0.34
	C585.93,224.922,585.93,216.45,580.769,211.107L580.769,211.107z"/>
<path fill="#ED7D31" d="M801.396,252.474c-5.385-5.383-14.113-5.383-19.498,0l-17.829,17.83v-90.815
	c0-7.615-6.174-13.789-13.789-13.789s-13.789,6.174-13.789,13.789v90.815l-17.83-17.83c-5.478-5.291-14.206-5.14-19.497,0.338
	c-5.161,5.344-5.161,13.815,0,19.16l41.367,41.367c5.385,5.383,14.113,5.383,19.498,0l41.367-41.367
	C806.779,266.587,806.779,257.859,801.396,252.474z"/>
</svg>
