<svg viewBox="0 0 512 512" xmlns="http://www.w3.org/2000/svg"><path d="m181 347h91v60h-91zm0 0" fill="#d3d3d8"/><path d="m226 347h46v60h-46zm0 0" fill="#babac0"/><path d="m452 45v257l-30 30h-392l-30-30v-257c0-24.902344 20.097656-45 45-45h362c24.902344 0 45 20.097656 45 45zm0 0" fill="#384949"/><path d="m452 45v227l-30 30h-196v-302h181c24.902344 0 45 20.097656 45 45zm0 0" fill="#293939"/><path d="m422 45v227h-392v-227c0-8.402344 6.597656-15 15-15h362c8.402344 0 15 6.597656 15 15zm0 0" fill="#46f8ff"/><path d="m422 45v227h-196v-242h181c8.402344 0 15 6.597656 15 15zm0 0" fill="#00e7f0"/><path d="m452 302v15c0 24.902344-20.097656 45-45 45h-362c-24.902344 0-45-20.097656-45-45v-15zm0 0" fill="#e2e2e7"/><path d="m452 302v15c0 24.902344-20.097656 45-45 45h-181v-60zm0 0" fill="#d3d3d8"/><path d="m332 407c0 8.402344-6.597656 15-15 15h-182c-8.402344 0-15-6.597656-15-15s6.597656-15 15-15h182c8.402344 0 15 6.597656 15 15zm0 0" fill="#e2e2e7"/><path d="m332 407c0 8.402344-6.597656 15-15 15h-91v-30h91c8.402344 0 15 6.597656 15 15zm0 0" fill="#d3d3d8"/><path d="m467 182h-120c-24.902344 0-45 20.097656-45 45v240c0 24.902344 20.097656 45 45 45h120c24.902344 0 45-20.097656 45-45v-240c0-24.902344-20.097656-45-45-45zm0 0" fill="#3e5959"/><path d="m467 182h-60v330h60c24.902344 0 45-20.097656 45-45v-240c0-24.902344-20.097656-45-45-45zm0 0" fill="#384949"/><path d="m332 242h150v210h-150zm0 0" fill="#bdfdff"/><path d="m407 242h75v210h-75zm0 0" fill="#9bfbff"/></svg>