<svg height="491pt" viewBox="0 -121 491 491" width="491pt" xmlns="http://www.w3.org/2000/svg"><path d="m491 0v96h-33c-5.515625-.015625-9.984375-4.484375-10-10v-76c.015625-5.515625 4.484375-9.984375 10-10zm0 0" fill="#d4e1f4"/><path d="m448 22.300781v54.898438l-115.699219 117.902343h-.199219l-6.800781-83.902343h.097657zm0 0" fill="#00acea"/><path d="m71 169.898438 9.300781-113.5 1.800781-21.796876h237l6.296876 76.597657 6.902343 83.800781 1.699219 20.699219c.679688 8.359375-2.164062 16.621093-7.839844 22.789062-5.679687 6.171875-13.675781 9.691407-22.058594 9.710938h-207c-8.386718-.019531-16.382812-3.539063-22.058593-9.710938-5.679688-6.167969-8.519531-14.429687-7.84375-22.789062zm0 0" fill="#00efd1"/><g fill="#00acea"><path d="m316.5 4.699219 2.5 30h-236.898438l2.398438-30zm0 0"/><path d="m71.101562 179.898438h-21.101562c-27.609375-.007813-49.9882812-22.386719-50-50v-33.5c.0117188-27.609376 22.390625-49.988282 50-50h30.101562v20h-30.101562c-16.546875.050781-29.953125 13.453124-30 30v33.5c.046875 16.550781 13.453125 29.953124 30 30h21.101562zm0 0"/></g></svg>