<?xml version="1.0" encoding="utf-8"?>
<!-- Generator: Adobe Illustrator 16.0.0, SVG Export Plug-In . SVG Version: 6.00 Build 0)  -->
<!DOCTYPE svg PUBLIC "-//W3C//DTD SVG 1.1//EN" "http://www.w3.org/Graphics/SVG/1.1/DTD/svg11.dtd">
<svg version="1.1" id="Capa_1" xmlns="http://www.w3.org/2000/svg" xmlns:xlink="http://www.w3.org/1999/xlink" x="0px" y="0px"
	 width="1280px" height="800px" viewBox="0 0 1280 800" enable-background="new 0 0 1280 800" xml:space="preserve">
<g>
	<path fill="#BEEBFA" d="M734.551,711.43c-12.945,0-23.43-10.483-23.43-23.43c0-95.949-37.358-186.132-105.195-253.968
		c-0.53-0.529-1.051-1.05-1.591-1.568c-67.647-66.854-157.189-103.638-252.388-103.638c-12.935,0.011-23.43-10.482-23.43-23.43
		c0-12.945,10.495-23.44,23.43-23.43c107.713-0.011,209.021,41.646,285.526,117.356c0.541,0.519,1.062,1.039,1.591,1.568
		c76.683,76.683,118.925,178.641,118.914,287.106C757.991,700.936,747.497,711.43,734.551,711.43z"/>
	<path fill="#BEEBFA" d="M589.611,711.264c-12.935,0.011-23.43-10.484-23.43-23.43c0-59.805-24.689-113.966-64.411-152.805
		c-38.563-37.745-91.32-61.031-149.412-61.021c-12.945,0-23.44-10.495-23.44-23.44s10.495-23.44,23.43-23.43
		c71.027,0,135.495,28.544,182.551,74.763c48.207,47.321,78.143,113.203,78.143,185.931
		C613.052,700.77,602.558,711.264,589.611,711.264z"/>
	<path fill="#BEEBFA" d="M875.005,710.49c-12.945,0-23.43-10.484-23.43-23.43c-0.011-133.561-52.017-259.114-146.464-353.562
		l-0.906-0.906c-94.325-93.86-219.501-145.535-352.644-145.546c-12.945,0-23.43-10.483-23.43-23.43
		c0-12.945,10.484-23.43,23.43-23.43c73.813,0,145.448,14.459,212.875,42.98c64.742,27.385,122.912,66.512,172.896,116.296
		c0.31,0.287,0.619,0.597,0.918,0.895c50.217,50.218,89.652,108.695,117.201,173.825c28.521,67.427,42.982,139.063,42.981,212.875
		C898.434,700.008,887.952,710.49,875.005,710.49z"/>
	<path fill="#BEEBFA" d="M1016.375,711.175c-12.945,0-23.44-10.494-23.44-23.44c0.011-86.527-16.935-170.457-50.35-249.45
		c-32.278-76.308-78.484-144.852-137.352-203.717c-0.497-0.497-1.005-1.005-1.515-1.492
		c-58.501-58.148-126.547-103.858-202.203-135.859c-78.99-33.414-162.91-50.349-249.448-50.349c-12.945,0-23.43-10.483-23.43-23.43
		C328.637,10.49,339.135,0,352.081,0c92.833,0,182.896,18.193,267.697,54.061c81.247,34.366,154.286,83.433,217.085,145.88
		c0.508,0.486,1.017,0.994,1.514,1.492c63.151,63.151,112.739,136.711,147.38,218.606c35.867,84.803,54.061,174.863,54.061,267.696
		C1039.817,700.683,1029.324,711.175,1016.375,711.175z"/>
</g>
<g>
	<path fill="#7ED8F6" d="M613.039,687.834c0.012,12.935-10.482,23.43-23.43,23.43c-12.934,0.011-23.43-10.484-23.43-23.43
		c0-59.805-24.688-113.966-64.41-152.805l33.128-33.128C583.105,549.225,613.041,615.105,613.039,687.834z"/>
	<path fill="#7ED8F6" d="M757.98,688c0.011,12.934-10.483,23.43-23.43,23.43c-12.945,0-23.43-10.483-23.43-23.43
		c0-95.949-37.358-186.132-105.195-253.968c-0.53-0.529-1.051-1.05-1.591-1.568l33.139-33.14c0.541,0.52,1.062,1.039,1.591,1.569
		C715.749,477.579,757.991,579.537,757.98,688z"/>
	<path fill="#7ED8F6" d="M898.434,687.061c0,12.945-10.482,23.43-23.43,23.43c-12.945,0-23.43-10.484-23.43-23.43
		c-0.011-133.561-52.017-259.114-146.464-353.562l-0.906-0.906l33.128-33.128c0.31,0.288,0.619,0.598,0.918,0.896
		c50.217,50.218,89.652,108.695,117.201,173.825C883.973,541.614,898.434,613.25,898.434,687.061z"/>
	<path fill="#7ED8F6" d="M1016.375,711.175c-12.945,0-23.44-10.494-23.44-23.44c0.011-86.527-16.935-170.457-50.35-249.45
		c-32.278-76.308-78.484-144.852-137.352-203.717c-0.497-0.497-1.005-1.005-1.515-1.492l33.14-33.14
		c0.508,0.486,1.017,0.994,1.514,1.492c63.151,63.151,112.739,136.711,147.38,218.606c35.867,84.803,54.061,174.864,54.061,267.696
		C1039.817,700.683,1029.324,711.175,1016.375,711.175z"/>
</g>
</svg>
